<svg xmlns="http://www.w3.org/2000/svg" xmlns:xlink="http://www.w3.org/1999/xlink" viewBox="0 0 54.47 82.12"><defs><style>.cls-1{isolation:isolate;}.cls-2{mix-blend-mode:overlay;fill:url(#linear-gradient);}</style><linearGradient id="linear-gradient" x1="271.32" y1="421.36" x2="323.69" y2="420.86" gradientUnits="userSpaceOnUse"><stop offset="0.42" stop-color="#00a759"/><stop offset="0.62" stop-color="#a14826"/><stop offset="0.7" stop-color="#e71f10"/></linearGradient></defs><g class="cls-1"><g id="Layer_1" data-name="Layer 1"><path class="cls-2" d="M271,381.23a3,3,0,0,1,4.28-.53l17,13.38-5,3.88-15.87-12.47A3,3,0,0,1,271,381.23ZM287.4,436l4.93-3.89-14-11,45.32-35.62a3,3,0,0,0-3.77-4.79l-48.38,38a3.08,3.08,0,0,0,0,4.8Zm36.28,20.76-15.86-12.47-4.93,3.88,17,13.38a3.11,3.11,0,0,0,1.89.65A3.05,3.05,0,0,0,323.68,456.73Zm0-33.22a3.06,3.06,0,0,0,0-4.8l-15.86-12.47-4.93,3.88,14,11-45.33,35.62a3.06,3.06,0,0,0,1.89,5.44,3.09,3.09,0,0,0,1.89-.65C322.54,425.26,313.64,431.49,323.68,423.51Z" transform="translate(-270.38 -380.05)"/></g></g></svg>