<svg xmlns="http://www.w3.org/2000/svg" xmlns:xlink="http://www.w3.org/1999/xlink" viewBox="0 0 953.26 737.69"><defs><style>.cls-1{isolation:isolate;}.cls-2{fill:#212121;}.cls-3{fill:#5b17ff;}.cls-4{mix-blend-mode:overlay;fill:url(#New_Gradient_Swatch_43);}</style><linearGradient id="New_Gradient_Swatch_43" x1="1676.88" y1="1058.17" x2="979.74" y2="351.14" gradientUnits="userSpaceOnUse"><stop offset="0" stop-color="#05d6d9"/><stop offset="1" stop-color="#f907fc"/></linearGradient></defs><g class="cls-1"><g id="Objects"><path class="cls-2" d="M883.48,1141.93c-47.89,10-81.45-34.82-64.77-76.29,15.29-38,64.67-45.78,94.06-17.47l-12.2,14.07c-30.43-28.18-66-8.3-66,24.88,0,22.59,16,38.65,35.71,38.65,10,0,18.65-2.49,31.07-14.06l12.22,12.36C905.22,1133,895.46,1139.41,883.48,1141.93ZM1132,1108.77c-12.23,29.87-47,42.16-75.44,30.06-29.54-12.58-40.41-46.07-29.36-73,12.12-29.73,46.89-42.22,75.43-30.06C1132,1048.21,1143.08,1081.66,1132,1108.77Zm-18.47-36.25a36.37,36.37,0,0,0-48.85-20.72c-19.23,8.64-26.13,31.74-19,50.24a36.37,36.37,0,0,0,48.85,20.72C1113.73,1114.12,1120.62,1091,1113.5,1072.52Zm206.68,64.69c-13.76,5.42-22.33,4.18-63.61,4.18V1033.18h40.35c33.53,0,57.5,22.78,57.5,53.94C1354.42,1109,1342.68,1128.33,1320.18,1137.21Zm-7.86-84.08c-8.67-3.47-13.81-2.8-36.89-2.8v73.9h21.39c23,0,37.67-15.5,37.67-36.8C1334.49,1072.34,1326.85,1059,1312.32,1053.13Zm242.6-2.8h-61.21v27.83H1548v17.16h-54.25v28.91h62v17.16h-80.85V1033.18h80.07Zm190.29,91.06-26.66-37.73h-23.88v37.73h-18.86V1033.18H1724c22.72,0,40.19,11.26,40.19,34.31,0,17-10.09,28.69-25.8,32.93l29.21,41Zm-6.2-86.48c-7.38-5.74-15.47-4.58-44.34-4.58v36.48h27.91C1748.13,1086.81,1749.15,1062.79,1739,1054.91Z" transform="translate(-814.37 -405.76)"/><path class="cls-3" d="M1125.23,440.35l100.82,79.27,31.5-24.66-108.31-85.07a19.39,19.39,0,0,0-24,30.46Z" transform="translate(-814.37 -405.76)"/><path class="cls-3" d="M1226.05,761.29l31.38-24.78-88.83-69.72,288.16-226.44a19.4,19.4,0,0,0-24-30.46L1125.23,651.56a19.46,19.46,0,0,0,0,30.47Z" transform="translate(-814.37 -405.76)"/><path class="cls-3" d="M1456.76,893.23,1355.93,814l-31.37,24.65,108.18,85.08a19.92,19.92,0,0,0,12,4.13C1462.73,927.83,1471.34,904.67,1456.76,893.23Z" transform="translate(-814.37 -405.76)"/><path class="cls-3" d="M1456.76,682a19.43,19.43,0,0,0,0-30.47l-100.83-79.27L1324.56,597l88.82,69.84L1125.23,893.23c-14.39,11.29-6.2,34.6,12,34.6a19.58,19.58,0,0,0,12-4.13C1449.5,693.16,1392.91,732.79,1456.76,682Z" transform="translate(-814.37 -405.76)"/><path class="cls-4" d="M1122,413.24a19.34,19.34,0,0,1,27.24-3.35L1257.55,495l-31.5,24.66-100.82-79.27A19.3,19.3,0,0,1,1122,413.24Zm104,348,31.38-24.78-88.83-69.72,288.16-226.44a19.4,19.4,0,0,0-24-30.46L1125.23,651.56a19.46,19.46,0,0,0,0,30.47Zm230.71,131.94L1355.93,814l-31.37,24.65,108.18,85.08a19.92,19.92,0,0,0,12,4.13C1462.73,927.83,1471.34,904.67,1456.76,893.23Zm0-211.2a19.43,19.43,0,0,0,0-30.47l-100.83-79.27L1324.56,597l88.82,69.84L1125.23,893.23c-14.39,11.29-6.2,34.6,12,34.6a19.58,19.58,0,0,0,12-4.13C1449.5,693.16,1392.91,732.79,1456.76,682Z" transform="translate(-814.37 -405.76)"/></g></g></svg>